ffmpeg version 4.2.7-0ubuntu0.1 Copyright (c) 2000-2022 the FFmpeg developers
  built with gcc 9 (Ubuntu 9.4.0-1ubuntu1~20.04.1)
  configuration: --prefix=/usr --extra-version=0ubuntu0.1 --toolchain=hardened --libdir=/usr/lib/x86_64-linux-gnu --incdir=/usr/include/x86_64-linux-gnu --arch=amd64 --enable-gpl --disable-stripping --enable-avresample --disable-filter=resample --enable-avisynth --enable-gnutls --enable-ladspa --enable-libaom --enable-libass --enable-libbluray --enable-libbs2b --enable-libcaca --enable-libcdio --enable-libcodec2 --enable-libflite --enable-libfontconfig --enable-libfreetype --enable-libfribidi --enable-libgme --enable-libgsm --enable-libjack --enable-libmp3lame --enable-libmysofa --enable-libopenjpeg --enable-libopenmpt --enable-libopus --enable-libpulse --enable-librsvg --enable-librubberband --enable-libshine --enable-libsnappy --enable-libsoxr --enable-libspeex --enable-libssh --enable-libtheora --enable-libtwolame --enable-libvidstab --enable-libvorbis --enable-libvpx --enable-libwavpack --enable-libwebp --enable-libx265 --enable-libxml2 --enable-libxvid --enable-libzmq --enable-libzvbi --enable-lv2 --enable-omx --enable-openal --enable-opencl --enable-opengl --enable-sdl2 --enable-libdc1394 --enable-libdrm --enable-libiec61883 --enable-nvenc --enable-chromaprint --enable-frei0r --enable-libx264 --enable-shared
  libavutil      56. 31.100 / 56. 31.100
  libavcodec     58. 54.100 / 58. 54.100
  libavformat    58. 29.100 / 58. 29.100
  libavdevice    58.  8.100 / 58.  8.100
  libavfilter     7. 57.100 /  7. 57.100
  libavresample   4.  0.  0 /  4.  0.  0
  libswscale      5.  5.100 /  5.  5.100
  libswresample   3.  5.100 /  3.  5.100
  libpostproc    55.  5.100 / 55.  5.100
Routing option strict to both codec and muxer layer
[h264 @ 0x56367c6fb880] Reinit context to 848x480, pix_fmt: yuv420p
Input #0, mov,mp4,m4a,3gp,3g2,mj2, from '/var/www/html/project/media/video/original/VID-20250829-WA0002.mp4':
  Metadata:
    major_brand     : mp42
    minor_version   : 0
    compatible_brands: mp42isom
  Duration: 00:00:15.94, start: 0.000000, bitrate: 1961 kb/s
    Stream #0:0(und): Video: h264 (High), 1 reference frame (avc1 / 0x31637661), yuv420p(tv, smpte170m/bt470bg/smpte170m, left), 848x478 (848x480), 1766 kb/s, 25.37 fps, 30 tbr, 30k tbn, 60k tbc (default)
    Stream #0:1(und): Audio: aac (LC) (mp4a / 0x6134706D), 48000 Hz, stereo, fltp, 192 kb/s (default)
Input #1, png_pipe, from '/var/www/html/project/static/images/templates/logo.png':
  Duration: N/A, bitrate: N/A
    Stream #1:0: Video: png, 1 reference frame, rgba(pc), 1920x1080 [SAR 2835:2835 DAR 16:9], 25 tbr, 25 tbn, 25 tbc
[Parsed_scale_0 @ 0x56367c730700] w:1280 h:720 flags:'bilinear' interl:0
[Parsed_scale_2 @ 0x56367c70d500] w:1280 h:720 flags:'bilinear' interl:0
Stream mapping:
  Stream #0:0 (h264) -> scale (graph 0)
  Stream #1:0 (png) -> scale (graph 0)
  overlay (graph 0) -> Stream #0:0 (libx264)
  Stream #0:1 -> #0:1 (aac (native) -> aac (native))
Press [q] to stop, [?] for help
[h264 @ 0x56367c732b00] Reinit context to 848x480, pix_fmt: yuv420p
[graph_1_in_0_1 @ 0x56367cbca680] tb:1/48000 samplefmt:fltp samplerate:48000 chlayout:0x3
[Parsed_scale_0 @ 0x56367c8aaf80] w:1280 h:720 flags:'bilinear' interl:0
[Parsed_scale_2 @ 0x56367c89d180] w:1280 h:720 flags:'bilinear' interl:0
[graph 0 input from stream 0:0 @ 0x56367ce15000] w:848 h:478 pixfmt:yuv420p tb:1/30000 fr:30/1 sar:0/1 sws_param:flags=2
[graph 0 input from stream 1:0 @ 0x56367ce16040] w:1920 h:1080 pixfmt:rgba tb:1/25 fr:25/1 sar:2835/2835 sws_param:flags=2
[Parsed_scale_0 @ 0x56367c8aaf80] w:848 h:478 fmt:yuv420p sar:0/1 -> w:1280 h:720 fmt:yuv420p sar:0/1 flags:0x2
[Parsed_setsar_1 @ 0x56367c89cc00] w:1280 h:720 sar:0/1 dar:16/9 -> sar:1/1 dar:16/9
[Parsed_scale_2 @ 0x56367c89d180] w:1920 h:1080 fmt:rgba sar:2835/2835 -> w:1280 h:720 fmt:yuva420p sar:1/1 flags:0x2
[Parsed_setsar_3 @ 0x56367ce13600] w:1280 h:720 sar:1/1 dar:16/9 -> sar:1/1 dar:16/9
[Parsed_overlay_4 @ 0x56367ce14200] main w:1280 h:720 fmt:yuv420p overlay w:1280 h:720 fmt:yuva420p
[Parsed_overlay_4 @ 0x56367ce14200] [framesync @ 0x56367ce14328] Selected 1/30000 time base
[Parsed_overlay_4 @ 0x56367ce14200] [framesync @ 0x56367ce14328] Sync level 2
[libx264 @ 0x56367c7332c0] using SAR=1/1
[libx264 @ 0x56367c7332c0] using cpu capabilities: MMX2 SSE2Fast SSSE3 SSE4.2 AVX FMA3 BMI2 AVX2
[libx264 @ 0x56367c7332c0] profile High, level 3.1
[libx264 @ 0x56367c7332c0] 264 - core 155 r2917 0a84d98 - H.264/MPEG-4 AVC codec - Copyleft 2003-2018 - http://www.videolan.org/x264.html - options: cabac=1 ref=1 deblock=1:0:0 analyse=0x3:0x113 me=hex subme=2 psy=1 psy_rd=1.00:0.00 mixed_ref=0 me_range=16 chroma_me=1 trellis=0 8x8dct=1 cqm=0 deadzone=21,11 fast_pskip=1 chroma_qp_offset=0 threads=22 lookahead_threads=5 sliced_threads=0 nr=0 decimate=1 interlaced=0 bluray_compat=0 constrained_intra=0 bframes=3 b_pyramid=2 b_adapt=1 b_bias=0 direct=1 weightb=1 open_gop=0 weightp=1 keyint=250 keyint_min=25 scenecut=40 intra_refresh=0 rc_lookahead=10 rc=crf mbtree=1 crf=18.0 qcomp=0.60 qpmin=0 qpmax=69 qpstep=4 ip_ratio=1.40 aq=1:1.00
Output #0, mp4, to '/var/www/html/project/media/video/watermarks/VID-20250829-WA0002.mp4':
  Metadata:
    major_brand     : mp42
    minor_version   : 0
    compatible_brands: mp42isom
    encoder         : Lavf58.29.100
    Stream #0:0: Video: h264 (libx264), 1 reference frame (avc1 / 0x31637661), yuv420p, 1280x720 [SAR 1:1 DAR 16:9], q=-1--1, 30 fps, 15360 tbn, 30 tbc (default)
    Metadata:
      encoder         : Lavc58.54.100 libx264
    Side data:
      cpb: bitrate max/min/avg: 0/0/0 buffer size: 0 vbv_delay: -1
    Stream #0:1(und): Audio: aac (LC) (mp4a / 0x6134706D), 48000 Hz, stereo, fltp, delay 1024, 128 kb/s (default)
    Metadata:
      encoder         : Lavc58.54.100 aac
[Parsed_overlay_4 @ 0x56367ce14200] [framesync @ 0x56367ce14328] Sync level 0
No more output streams to write to, finishing.
frame=  404 fps= 46 q=-1.0 Lsize=    7592kB time=00:00:15.93 bitrate=3902.7kbits/s speed=1.82x    
[AVIOContext @ 0x56367c6f9b40] Statistics: 0 seeks, 17 writeouts
video:7323kB audio:252kB subtitle:0kB other streams:0kB global headers:0kB muxing overhead: 0.222315%
Input file #0 (/var/www/html/project/media/video/original/VID-20250829-WA0002.mp4):
  Input stream #0:0 (video): 404 packets read (3516448 bytes); 404 frames decoded; 
  Input stream #0:1 (audio): 747 packets read (382464 bytes); 747 frames decoded (764928 samples); 
  Total: 1151 packets (3898912 bytes) demuxed
Input file #1 (/var/www/html/project/static/images/templates/logo.png):
  Input stream #1:0 (video): 1 packets read (111578 bytes); 1 frames decoded; 
  Total: 1 packets (111578 bytes) demuxed
Output file #0 (/var/www/html/project/media/video/watermarks/VID-20250829-WA0002.mp4):
  Output stream #0:0 (video): 404 frames encoded; 404 packets muxed (7498970 bytes); 
  Output stream #0:1 (audio): 747 frames encoded (764928 samples); 748 packets muxed (258058 bytes); 
  Total: 1152 packets (7757028 bytes) muxed
[AVIOContext @ 0x56367c70d4c0] Statistics: 2 seeks, 33 writeouts
[libx264 @ 0x56367c7332c0] frame I:2     Avg QP:16.40  size: 32736
[libx264 @ 0x56367c7332c0] frame P:136   Avg QP:17.79  size: 21925
[libx264 @ 0x56367c7332c0] frame B:266   Avg QP:18.20  size: 16733
[libx264 @ 0x56367c7332c0] consecutive B-frames:  6.4% 10.4% 20.8% 62.4%
[libx264 @ 0x56367c7332c0] mb I  I16..4: 26.1% 58.3% 15.6%
[libx264 @ 0x56367c7332c0] mb P  I16..4: 25.8% 54.5%  6.0%  P16..4:  7.7%  3.9%  1.3%  0.0%  0.0%    skip: 0.9%
[libx264 @ 0x56367c7332c0] mb B  I16..4: 14.0% 24.1%  1.8%  B16..8: 25.0% 11.9%  1.0%  direct: 9.5%  skip:12.7%  L0:50.0% L1:43.8% BI: 6.2%
[libx264 @ 0x56367c7332c0] 8x8 transform intra:61.8% inter:31.6%
[libx264 @ 0x56367c7332c0] coded y,uvDC,uvAC intra: 43.5% 55.4% 8.4% inter: 15.3% 41.0% 0.5%
[libx264 @ 0x56367c7332c0] i16 v,h,dc,p: 35% 38% 14% 14%
[libx264 @ 0x56367c7332c0] i8 v,h,dc,ddl,ddr,vr,hd,vl,hu: 19% 40% 16%  4%  4%  3%  6%  3%  5%
[libx264 @ 0x56367c7332c0] i4 v,h,dc,ddl,ddr,vr,hd,vl,hu: 20% 33% 13%  5%  7%  4%  9%  4%  6%
[libx264 @ 0x56367c7332c0] i8c dc,h,v,p: 46% 30% 17%  7%
[libx264 @ 0x56367c7332c0] Weighted P-Frames: Y:6.6% UV:4.4%
[libx264 @ 0x56367c7332c0] kb/s:3764.83
[aac @ 0x56367c875840] Qavg: 222.008
[AVIOContext @ 0x56367c702ac0] Statistics: 12017639 bytes read, 283 seeks
[AVIOContext @ 0x56367c7e1540] Statistics: 111578 bytes read, 0 seeks
